<svg width="1440" height="820" viewBox="0 0 1440 820" fill="none" xmlns="http://www.w3.org/2000/svg">
<mask id="mask0_14_2" style="mask-type:alpha" maskUnits="userSpaceOnUse" x="0" y="0" width="1440" height="820">
<path d="M1440 0H0V820H1440V0Z" fill="white"/>
</mask>
<g mask="url(#mask0_14_2)">
<path d="M1440 0H0V820H1440V0Z" fill="#151615"/>
<path d="M-6.10352e-05 661.47C125.433 667.735 255.553 627.519 350.313 545.098C440.245 466.877 450.346 336.69 498.669 227.735C546.338 120.256 639.838 26.415 632.398 -90.925C624.811 -210.585 540.082 -309.398 459.013 -397.737C379.712 -484.151 287.054 -561.525 173.521 -590.957C61.8009 -619.919 -51.0491 -581.909 -164.227 -559.306C-288.758 -534.436 -426.021 -535.539 -521.755 -452.104C-622.171 -364.588 -680.031 -232.148 -691.843 -99.472C-703.368 29.987 -652.277 155.839 -585.822 267.536C-524.178 371.147 -428.57 443.917 -328.524 511.193C-226.53 579.779 -122.757 655.339 -6.10352e-05 661.47Z" fill="#111211"/>
<path d="M1440 1227.91C1542.15 1235.19 1640.52 1317.31 1736.28 1281.03C1833.57 1244.16 1910.15 1145.4 1928.16 1042.94C1945.62 943.634 1859.69 859.763 1827.14 764.338C1801.81 690.104 1797.15 612.397 1758.08 544.385C1711.97 464.126 1669.78 365.842 1581.76 337.195C1493.64 308.514 1406.7 377.858 1316.91 400.795C1223.02 424.779 1112.34 408.493 1041.96 475.093C970.359 542.839 965.428 652.227 948.55 749.34C931.194 849.199 900.927 954.763 942.526 1047.19C984.187 1139.75 1074.26 1205.98 1169.67 1240.64C1256.21 1272.08 1348.16 1221.36 1440 1227.91Z" fill="#191A19"/>
</g>
</svg>
